<?xml version="1.0" encoding="utf-8"?>
<!-- Generator: Adobe Illustrator 17.0.2, SVG Export Plug-In . SVG Version: 6.00 Build 0)  -->
<!DOCTYPE svg PUBLIC "-//W3C//DTD SVG 1.1//EN" "http://www.w3.org/Graphics/SVG/1.1/DTD/svg11.dtd">
<svg version="1.1" id="Calque_1" xmlns="http://www.w3.org/2000/svg" xmlns:xlink="http://www.w3.org/1999/xlink" x="0px" y="0px"
	 width="1017.534px" height="1016.776px" viewBox="0 0 1017.534 1016.776" enable-background="new 0 0 1017.534 1016.776"
	 xml:space="preserve">
<g>
	<path fill="#4875B4" d="M1017.534,508.729c0,144.027-0.029,288.053,0.035,432.08c0.008,19.052-5.255,36.128-17.874,50.586
		c-14.725,16.869-33.591,25.908-55.792,25.922c-290.221,0.188-580.443,0.275-870.663-0.049
		c-40.102-0.045-69.008-30.978-72.403-64.374c-0.42-4.129-0.802-8.286-0.802-12.43C-0.004,652.243-0.005,364.022,0.006,75.801
		C0.007,39.484,21.097,11.476,55.397,2.653C61.61,1.054,68.18,0.103,74.585,0.1c289.388-0.123,578.775-0.109,868.163-0.103
		c35.762,0.001,65.628,23.675,73.141,58.315c1.291,5.951,1.577,12.216,1.58,18.336
		C1017.553,220.675,1017.534,364.702,1017.534,508.729z M868.24,867.191c0-2.668,0-4.629,0-6.59c0-31.336,0.104-62.672-0.021-94.008
		c-0.274-68.472-0.37-136.947-1.226-205.412c-0.2-15.995-2.484-32.058-4.967-47.909c-4.022-25.674-11.207-50.45-24.586-73.056
		c-16.717-28.247-40.471-47.921-71.433-58.95c-27.699-9.866-56.278-12.855-85.513-12.088c-15.544,0.408-30.651,2.644-45.534,6.995
		c-37.489,10.958-67.381,32.201-88.672,65.167c-1.275,1.974-2.422,4.032-3.628,6.05c-0.424-0.13-0.848-0.26-1.272-0.389
		c-0.086-1.74-0.246-3.48-0.248-5.22c-0.018-18.168-0.006-36.336-0.015-54.505c-0.003-6.689-0.092-6.809-6.607-6.811
		c-44.17-0.013-88.341-0.013-132.511,0c-6.282,0.002-6.488,0.205-6.489,6.482c-0.009,158.014,0.018,316.027-0.119,474.041
		c-0.005,5.21,1.606,6.331,6.541,6.311c46.003-0.183,92.007-0.108,138.011-0.109c7.172,0,7.155-0.004,7.18-7.313
		c0.3-85.307,0.515-170.614,0.987-255.92c0.094-17.001,3.229-33.643,9.022-49.672c8.59-23.768,24.106-40.688,48.914-47.777
		c14.304-4.087,28.897-5.25,43.809-3.587c25.656,2.861,44.095,15.489,54.531,39.191c8.017,18.209,10.805,37.696,10.9,57.27
		c0.422,87.005,0.246,174.013,0.291,261.021c0.004,6.779,0.021,6.786,6.842,6.786c46.504,0.002,93.008,0.001,139.512,0.001
		C863.753,867.191,865.567,867.191,868.24,867.191z M150.294,867.191c2.415,0,4.201,0,5.986,0c46.505,0,93.011-0.095,139.515,0.13
		c5.363,0.026,6.243-1.864,6.24-6.606c-0.101-157.685-0.083-315.369-0.087-473.054c0-7.179-0.024-7.2-7.28-7.201
		c-45.672-0.007-91.344-0.005-137.016-0.002c-7.354,0.001-7.358,0.011-7.358,7.273c-0.001,157.518-0.001,315.036-0.001,472.554
		C150.294,862.275,150.294,864.266,150.294,867.191z M138.292,227.081c-0.376,48.781,38.15,88.775,87.882,88.502
		c50.26-0.277,88.213-38.492,88.483-88.18c0.267-49.163-39.664-87.986-88.402-88.287
		C178.199,138.818,137.545,179.29,138.292,227.081z"/>
	<path fill="#FFFFFF" d="M868.24,867.191c-2.673,0-4.487,0-6.301,0c-46.504,0-93.008,0.001-139.512-0.001
		c-6.821,0-6.839-0.007-6.842-6.786c-0.045-87.007,0.131-174.015-0.291-261.021c-0.095-19.574-2.883-39.061-10.9-57.27
		c-10.436-23.702-28.875-36.33-54.531-39.191c-14.912-1.663-29.506-0.5-43.809,3.587c-24.809,7.088-40.324,24.009-48.914,47.777
		c-5.793,16.029-8.928,32.671-9.022,49.672c-0.472,85.306-0.687,170.613-0.987,255.92c-0.026,7.308-0.008,7.312-7.18,7.313
		c-46.004,0.001-92.008-0.074-138.011,0.109c-4.936,0.02-6.546-1.101-6.541-6.311c0.138-158.013,0.111-316.027,0.119-474.041
		c0-6.277,0.206-6.48,6.489-6.482c44.17-0.013,88.341-0.014,132.511,0c6.515,0.002,6.604,0.121,6.607,6.811
		c0.009,18.168-0.004,36.336,0.015,54.505c0.002,1.74,0.161,3.48,0.248,5.22c0.424,0.13,0.848,0.26,1.272,0.389
		c1.206-2.019,2.353-4.076,3.628-6.05c21.291-32.966,51.183-54.208,88.672-65.167c14.884-4.351,29.99-6.587,45.534-6.995
		c29.235-0.767,57.814,2.223,85.513,12.088c30.963,11.028,54.716,30.703,71.433,58.95c13.379,22.606,20.564,47.382,24.586,73.056
		c2.483,15.851,4.767,31.914,4.967,47.909c0.856,68.465,0.952,136.94,1.226,205.412c0.125,31.336,0.021,62.672,0.021,94.008
		C868.24,862.562,868.24,864.523,868.24,867.191z"/>
	<path fill="#FFFFFF" d="M150.294,867.191c0-2.925,0-4.915,0-6.906c0-157.518,0-315.036,0.001-472.554
		c0-7.261,0.004-7.272,7.358-7.273c45.672-0.003,91.344-0.005,137.016,0.002c7.257,0.001,7.28,0.022,7.28,7.201
		c0.004,157.685-0.014,315.369,0.087,473.054c0.003,4.743-0.878,6.632-6.24,6.606c-46.504-0.225-93.01-0.13-139.515-0.13
		C154.495,867.19,152.709,867.191,150.294,867.191z"/>
	<path fill="#FFFFFF" d="M138.292,227.081c-0.747-47.79,39.907-88.262,87.964-87.966c48.737,0.301,88.669,39.125,88.402,88.287
		c-0.27,49.688-38.223,87.903-88.483,88.18C176.442,315.856,137.916,275.862,138.292,227.081z"/>
</g>
</svg>
